<mxfile host="app.diagrams.net" modified="2024-01-29T15:14:09.523Z" agent="Mozilla/5.0 (Windows NT 10.0; Win64; x64) AppleWebKit/537.36 (KHTML, like Gecko) Chrome/110.0.0.0 Safari/537.36" etag="Zz_-6pZY17Rr7uGj-AGX" version="23.0.2" type="device">
  <diagram id="J_HNwD6cj26pRmCR0jRa" name="Página-1">
    <mxGraphModel dx="3212" dy="3878" grid="1" gridSize="10" guides="1" tooltips="1" connect="1" arrows="1" fold="1" page="1" pageScale="1" pageWidth="827" pageHeight="1169" math="0" shadow="0">
      <root>
        <mxCell id="0" />
        <mxCell id="1" parent="0" />
        <mxCell id="k22lOryHHmgSbOlUSeE7-233" value="" style="ellipse;whiteSpace=wrap;html=1;strokeColor=none;fillColor=#262119;rotation=30;" parent="1" vertex="1">
          <mxGeometry x="-149.09305551940815" y="-1120.7166296576931" width="28.886791677837948" height="22.428041157155732" as="geometry" />
        </mxCell>
        <mxCell id="k22lOryHHmgSbOlUSeE7-196" value="" style="whiteSpace=wrap;html=1;shape=mxgraph.basic.pointed_oval;strokeColor=#74A15C;fillColor=#97D077;rotation=-105;" parent="1" vertex="1">
          <mxGeometry x="10.5" y="-1428.5" width="18" height="30" as="geometry" />
        </mxCell>
        <mxCell id="k22lOryHHmgSbOlUSeE7-195" value="" style="shape=tape;whiteSpace=wrap;html=1;strokeColor=#74A15C;fillColor=#97D077;rotation=90;size=0.41993975903614;" parent="1" vertex="1">
          <mxGeometry x="-24.25999999999999" y="-1412.5" width="59" height="8" as="geometry" />
        </mxCell>
        <mxCell id="k22lOryHHmgSbOlUSeE7-191" value="" style="ellipse;whiteSpace=wrap;html=1;strokeColor=none;fillColor=#FF5B14;" parent="1" vertex="1">
          <mxGeometry x="-26.63000000000011" y="-1473.5" width="64.25" height="40" as="geometry" />
        </mxCell>
        <mxCell id="k22lOryHHmgSbOlUSeE7-173" value="" style="rounded=0;whiteSpace=wrap;html=1;strokeColor=#E8E800;fillColor=#E8E800;" parent="1" vertex="1">
          <mxGeometry x="-22.5" y="-1386.5" width="56" height="43" as="geometry" />
        </mxCell>
        <mxCell id="i49qwFXdwWi4mfqq8toA-18" value="" style="shape=datastore;whiteSpace=wrap;html=1;strokeColor=#000000;fillColor=#009900;rotation=0;" parent="1" vertex="1">
          <mxGeometry x="-340.5" y="-1147.5" width="60" height="60" as="geometry" />
        </mxCell>
        <mxCell id="k22lOryHHmgSbOlUSeE7-44" value="" style="rounded=0;whiteSpace=wrap;html=1;strokeColor=none;fillColor=#3B1D00;" parent="1" vertex="1">
          <mxGeometry x="-365.5" y="-1098.5" width="56" height="42" as="geometry" />
        </mxCell>
        <mxCell id="k22lOryHHmgSbOlUSeE7-30" value="" style="ellipse;whiteSpace=wrap;html=1;fillColor=#000F00;strokeColor=none;" parent="1" vertex="1">
          <mxGeometry x="-337" y="-1145.5" width="53" height="10" as="geometry" />
        </mxCell>
        <mxCell id="i49qwFXdwWi4mfqq8toA-33" value="" style="triangle;whiteSpace=wrap;html=1;strokeColor=#000000;fillColor=#FFFFFF;rotation=-105;" parent="1" vertex="1">
          <mxGeometry x="-310.5" y="-1276.05" width="35" height="13.55" as="geometry" />
        </mxCell>
        <mxCell id="i49qwFXdwWi4mfqq8toA-32" value="" style="triangle;whiteSpace=wrap;html=1;strokeColor=#000000;fillColor=#FFFFFF;rotation=-90;" parent="1" vertex="1">
          <mxGeometry x="-321.5999999999999" y="-1273.99" width="36.1" height="13.55" as="geometry" />
        </mxCell>
        <mxCell id="i49qwFXdwWi4mfqq8toA-28" value="" style="triangle;whiteSpace=wrap;html=1;strokeColor=#000000;fillColor=#FFFFFF;rotation=-85;" parent="1" vertex="1">
          <mxGeometry x="-342.78" y="-1273.99" width="30" height="13.55" as="geometry" />
        </mxCell>
        <mxCell id="i49qwFXdwWi4mfqq8toA-29" value="" style="triangle;whiteSpace=wrap;html=1;strokeColor=#000000;fillColor=#FFFFFF;rotation=-90;" parent="1" vertex="1">
          <mxGeometry x="-333.70000000000005" y="-1273.99" width="36.1" height="13.55" as="geometry" />
        </mxCell>
        <mxCell id="i49qwFXdwWi4mfqq8toA-31" value="" style="triangle;whiteSpace=wrap;html=1;strokeColor=#000000;fillColor=#FFFFFF;rotation=-105;" parent="1" vertex="1">
          <mxGeometry x="-292.5" y="-1278.05" width="25" height="13.55" as="geometry" />
        </mxCell>
        <mxCell id="7-Smgg52Uy-sA67y1xf7-2" value="Curso" style="swimlane;childLayout=stackLayout;horizontal=1;startSize=30;horizontalStack=0;rounded=1;fontSize=14;fontStyle=0;strokeWidth=2;resizeParent=0;resizeLast=1;shadow=0;dashed=0;align=center;" parent="1" vertex="1">
          <mxGeometry x="20" y="120" width="180" height="120" as="geometry" />
        </mxCell>
        <mxCell id="7-Smgg52Uy-sA67y1xf7-3" value="cod_Curso (PK)&#xa;Nombre&#xa;Descripción&#xa;num_Horas&#xa;Coste" style="align=left;strokeColor=none;fillColor=none;spacingLeft=4;fontSize=12;verticalAlign=top;resizable=0;rotatable=0;part=1;" parent="7-Smgg52Uy-sA67y1xf7-2" vertex="1">
          <mxGeometry y="30" width="180" height="90" as="geometry" />
        </mxCell>
        <mxCell id="7-Smgg52Uy-sA67y1xf7-4" value="realiza" style="rhombus;whiteSpace=wrap;html=1;" parent="1" vertex="1">
          <mxGeometry x="270" y="120" width="100" height="50" as="geometry" />
        </mxCell>
        <mxCell id="7-Smgg52Uy-sA67y1xf7-22" value="" style="endArrow=none;html=1;exitX=0;exitY=0.5;exitDx=0;exitDy=0;entryX=1.003;entryY=0.207;entryDx=0;entryDy=0;entryPerimeter=0;" parent="1" source="7-Smgg52Uy-sA67y1xf7-4" target="7-Smgg52Uy-sA67y1xf7-2" edge="1">
          <mxGeometry width="50" height="50" relative="1" as="geometry">
            <mxPoint x="120" y="390" as="sourcePoint" />
            <mxPoint x="220" y="145" as="targetPoint" />
          </mxGeometry>
        </mxCell>
        <mxCell id="7-Smgg52Uy-sA67y1xf7-23" value="" style="endArrow=none;html=1;exitX=1;exitY=0.5;exitDx=0;exitDy=0;entryX=-0.002;entryY=0.214;entryDx=0;entryDy=0;entryPerimeter=0;" parent="1" source="7-Smgg52Uy-sA67y1xf7-4" target="7-Smgg52Uy-sA67y1xf7-42" edge="1">
          <mxGeometry width="50" height="50" relative="1" as="geometry">
            <mxPoint x="374" y="155" as="sourcePoint" />
            <mxPoint x="420" y="145" as="targetPoint" />
          </mxGeometry>
        </mxCell>
        <mxCell id="7-Smgg52Uy-sA67y1xf7-37" value="organiza" style="rhombus;whiteSpace=wrap;html=1;" parent="1" vertex="1">
          <mxGeometry x="-170" y="120" width="100" height="50" as="geometry" />
        </mxCell>
        <mxCell id="7-Smgg52Uy-sA67y1xf7-38" value="Empresa" style="swimlane;childLayout=stackLayout;horizontal=1;startSize=30;horizontalStack=0;rounded=1;fontSize=14;fontStyle=0;strokeWidth=2;resizeParent=0;resizeLast=1;shadow=0;dashed=0;align=center;" parent="1" vertex="1">
          <mxGeometry x="-430" y="120" width="180" height="120" as="geometry" />
        </mxCell>
        <mxCell id="7-Smgg52Uy-sA67y1xf7-39" value="cod_Empresa (PK)" style="align=left;strokeColor=none;fillColor=none;spacingLeft=4;fontSize=12;verticalAlign=top;resizable=0;rotatable=0;part=1;" parent="7-Smgg52Uy-sA67y1xf7-38" vertex="1">
          <mxGeometry y="30" width="180" height="90" as="geometry" />
        </mxCell>
        <mxCell id="7-Smgg52Uy-sA67y1xf7-40" value="Requisito" style="swimlane;childLayout=stackLayout;horizontal=1;startSize=30;horizontalStack=0;rounded=1;fontSize=14;fontStyle=0;strokeWidth=2;resizeParent=0;resizeLast=1;shadow=0;dashed=0;align=center;" parent="1" vertex="1">
          <mxGeometry x="110" y="-275" width="180" height="120" as="geometry" />
        </mxCell>
        <mxCell id="7-Smgg52Uy-sA67y1xf7-41" value="cod_Requisito (PK)&#xa;cod_Curso&#xa;Descripción&#xa;Obligatorio&#xa;Recomendado" style="align=left;strokeColor=none;fillColor=none;spacingLeft=4;fontSize=12;verticalAlign=top;resizable=0;rotatable=0;part=1;" parent="7-Smgg52Uy-sA67y1xf7-40" vertex="1">
          <mxGeometry y="30" width="180" height="90" as="geometry" />
        </mxCell>
        <mxCell id="7-Smgg52Uy-sA67y1xf7-42" value="Edición" style="swimlane;childLayout=stackLayout;horizontal=1;startSize=30;horizontalStack=0;rounded=1;fontSize=14;fontStyle=0;strokeWidth=2;resizeParent=0;resizeLast=1;shadow=0;dashed=0;align=center;" parent="1" vertex="1">
          <mxGeometry x="440" y="120" width="180" height="120" as="geometry" />
        </mxCell>
        <mxCell id="7-Smgg52Uy-sA67y1xf7-43" value="cod_Edicion (PK)&#xa;Lugar&#xa;Fecha&#xa;Horario&#xa;Intensivo (Si/no)&#xa;" style="align=left;strokeColor=none;fillColor=none;spacingLeft=4;fontSize=12;verticalAlign=top;resizable=0;rotatable=0;part=1;fontColor=default;" parent="7-Smgg52Uy-sA67y1xf7-42" vertex="1">
          <mxGeometry y="30" width="180" height="90" as="geometry" />
        </mxCell>
        <mxCell id="7-Smgg52Uy-sA67y1xf7-44" value="imparte" style="rhombus;whiteSpace=wrap;html=1;" parent="1" vertex="1">
          <mxGeometry x="-3" y="-75" width="100" height="50" as="geometry" />
        </mxCell>
        <mxCell id="7-Smgg52Uy-sA67y1xf7-45" value="Empleado" style="swimlane;childLayout=stackLayout;horizontal=1;startSize=30;horizontalStack=0;rounded=1;fontSize=14;fontStyle=0;strokeWidth=2;resizeParent=0;resizeLast=1;shadow=0;dashed=0;align=center;" parent="1" vertex="1">
          <mxGeometry x="-210" y="-660" width="180" height="215" as="geometry" />
        </mxCell>
        <mxCell id="7-Smgg52Uy-sA67y1xf7-46" value="cod_Empleado (PK)&#xa;Nombre&#xa;Apellidos&#xa;Direccion&#xa;Teléfono&#xa;NIF&#xa;Fecha_nacimiento&#xa;Nacionalidad&#xa;Sexo&#xa;Firma&#xa;Salario&#xa;" style="align=left;strokeColor=none;fillColor=none;spacingLeft=4;fontSize=12;verticalAlign=top;resizable=0;rotatable=0;part=1;" parent="7-Smgg52Uy-sA67y1xf7-45" vertex="1">
          <mxGeometry y="30" width="180" height="185" as="geometry" />
        </mxCell>
        <mxCell id="7-Smgg52Uy-sA67y1xf7-51" value="contrata" style="rhombus;whiteSpace=wrap;html=1;" parent="1" vertex="1">
          <mxGeometry x="-390" y="-75" width="100" height="50" as="geometry" />
        </mxCell>
        <mxCell id="7-Smgg52Uy-sA67y1xf7-52" value="establece" style="rhombus;whiteSpace=wrap;html=1;" parent="1" vertex="1">
          <mxGeometry x="105" y="-74" width="100" height="50" as="geometry" />
        </mxCell>
        <mxCell id="7-Smgg52Uy-sA67y1xf7-53" value="participa" style="rhombus;whiteSpace=wrap;html=1;" parent="1" vertex="1">
          <mxGeometry x="482" y="380" width="100" height="50" as="geometry" />
        </mxCell>
        <mxCell id="7-Smgg52Uy-sA67y1xf7-57" value="cumplidor de" style="rhombus;whiteSpace=wrap;html=1;" parent="1" vertex="1">
          <mxGeometry x="150" y="-547.5" width="100" height="50" as="geometry" />
        </mxCell>
        <mxCell id="7-Smgg52Uy-sA67y1xf7-59" value="" style="endArrow=none;html=1;exitX=0.5;exitY=0;exitDx=0;exitDy=0;entryX=0.5;entryY=1;entryDx=0;entryDy=0;" parent="1" source="7-Smgg52Uy-sA67y1xf7-4" target="7-Smgg52Uy-sA67y1xf7-60" edge="1">
          <mxGeometry width="50" height="50" relative="1" as="geometry">
            <mxPoint x="295" y="80" as="sourcePoint" />
            <mxPoint x="345" y="70" as="targetPoint" />
          </mxGeometry>
        </mxCell>
        <mxCell id="7-Smgg52Uy-sA67y1xf7-60" value="&lt;span style=&quot;text-align: left&quot;&gt;&lt;b&gt;Fecha&lt;/b&gt;&lt;/span&gt;" style="ellipse;whiteSpace=wrap;html=1;" parent="1" vertex="1">
          <mxGeometry x="282.5" y="30" width="75" height="50" as="geometry" />
        </mxCell>
        <mxCell id="7-Smgg52Uy-sA67y1xf7-62" value="" style="triangle;whiteSpace=wrap;html=1;rotation=90;" parent="1" vertex="1">
          <mxGeometry x="-150" y="-400" width="60" height="80" as="geometry" />
        </mxCell>
        <mxCell id="7-Smgg52Uy-sA67y1xf7-63" value="Incapacitado" style="swimlane;childLayout=stackLayout;horizontal=1;startSize=30;horizontalStack=0;rounded=1;fontSize=14;fontStyle=0;strokeWidth=2;resizeParent=0;resizeLast=1;shadow=0;dashed=0;align=center;" parent="1" vertex="1">
          <mxGeometry x="-310" y="-275" width="180" height="120" as="geometry" />
        </mxCell>
        <mxCell id="7-Smgg52Uy-sA67y1xf7-64" value="Reportes_médicos&#xa;Reportes_psiquiátricos&#xa;Causas_extermas" style="align=left;strokeColor=none;fillColor=none;spacingLeft=4;fontSize=12;verticalAlign=top;resizable=0;rotatable=0;part=1;" parent="7-Smgg52Uy-sA67y1xf7-63" vertex="1">
          <mxGeometry y="30" width="180" height="90" as="geometry" />
        </mxCell>
        <mxCell id="7-Smgg52Uy-sA67y1xf7-65" value="Capacitado" style="swimlane;childLayout=stackLayout;horizontal=1;startSize=30;horizontalStack=0;rounded=1;fontSize=14;fontStyle=0;strokeWidth=2;resizeParent=0;resizeLast=1;shadow=0;dashed=0;align=center;" parent="1" vertex="1">
          <mxGeometry x="-110" y="-275" width="180" height="120" as="geometry" />
        </mxCell>
        <mxCell id="7-Smgg52Uy-sA67y1xf7-66" value="-" style="align=left;strokeColor=none;fillColor=none;spacingLeft=4;fontSize=12;verticalAlign=top;resizable=0;rotatable=0;part=1;" parent="7-Smgg52Uy-sA67y1xf7-65" vertex="1">
          <mxGeometry y="30" width="180" height="90" as="geometry" />
        </mxCell>
        <mxCell id="7-Smgg52Uy-sA67y1xf7-69" value="" style="endArrow=none;html=1;exitX=0.5;exitY=0;exitDx=0;exitDy=0;" parent="1" source="7-Smgg52Uy-sA67y1xf7-44" edge="1">
          <mxGeometry width="50" height="50" relative="1" as="geometry">
            <mxPoint x="140" y="-70" as="sourcePoint" />
            <mxPoint x="47" y="-155" as="targetPoint" />
          </mxGeometry>
        </mxCell>
        <mxCell id="7-Smgg52Uy-sA67y1xf7-70" value="" style="endArrow=none;html=1;entryX=0.5;entryY=1;entryDx=0;entryDy=0;exitX=0.151;exitY=-0.002;exitDx=0;exitDy=0;exitPerimeter=0;" parent="1" source="7-Smgg52Uy-sA67y1xf7-2" target="7-Smgg52Uy-sA67y1xf7-44" edge="1">
          <mxGeometry width="50" height="50" relative="1" as="geometry">
            <mxPoint x="85" y="-52.5" as="sourcePoint" />
            <mxPoint x="35" y="-145" as="targetPoint" />
          </mxGeometry>
        </mxCell>
        <mxCell id="7-Smgg52Uy-sA67y1xf7-71" value="" style="endArrow=none;html=1;exitX=0.5;exitY=1;exitDx=0;exitDy=0;entryX=0.5;entryY=0;entryDx=0;entryDy=0;" parent="1" source="7-Smgg52Uy-sA67y1xf7-51" target="7-Smgg52Uy-sA67y1xf7-38" edge="1">
          <mxGeometry width="50" height="50" relative="1" as="geometry">
            <mxPoint x="95" y="-52.5" as="sourcePoint" />
            <mxPoint x="-410" y="60" as="targetPoint" />
          </mxGeometry>
        </mxCell>
        <mxCell id="7-Smgg52Uy-sA67y1xf7-72" value="" style="endArrow=none;html=1;exitX=0.5;exitY=0;exitDx=0;exitDy=0;" parent="1" source="7-Smgg52Uy-sA67y1xf7-51" edge="1">
          <mxGeometry width="50" height="50" relative="1" as="geometry">
            <mxPoint x="-330" y="-15" as="sourcePoint" />
            <mxPoint x="-340" y="-440" as="targetPoint" />
          </mxGeometry>
        </mxCell>
        <mxCell id="7-Smgg52Uy-sA67y1xf7-73" value="" style="endArrow=none;html=1;entryX=0.999;entryY=0.769;entryDx=0;entryDy=0;entryPerimeter=0;" parent="1" target="7-Smgg52Uy-sA67y1xf7-87" edge="1">
          <mxGeometry width="50" height="50" relative="1" as="geometry">
            <mxPoint x="-340" y="-440" as="sourcePoint" />
            <mxPoint x="-260" y="-460" as="targetPoint" />
          </mxGeometry>
        </mxCell>
        <mxCell id="7-Smgg52Uy-sA67y1xf7-74" value="" style="endArrow=none;html=1;exitX=0.5;exitY=1;exitDx=0;exitDy=0;" parent="1" source="7-Smgg52Uy-sA67y1xf7-46" target="7-Smgg52Uy-sA67y1xf7-62" edge="1">
          <mxGeometry width="50" height="50" relative="1" as="geometry">
            <mxPoint x="-330" y="-430" as="sourcePoint" />
            <mxPoint x="-198.01999999999998" y="-546" as="targetPoint" />
          </mxGeometry>
        </mxCell>
        <mxCell id="7-Smgg52Uy-sA67y1xf7-75" value="" style="endArrow=none;html=1;exitX=1;exitY=0.5;exitDx=0;exitDy=0;entryX=0.5;entryY=0;entryDx=0;entryDy=0;" parent="1" source="7-Smgg52Uy-sA67y1xf7-62" target="7-Smgg52Uy-sA67y1xf7-63" edge="1">
          <mxGeometry width="50" height="50" relative="1" as="geometry">
            <mxPoint x="-110" y="-435" as="sourcePoint" />
            <mxPoint x="-110" y="-380" as="targetPoint" />
          </mxGeometry>
        </mxCell>
        <mxCell id="7-Smgg52Uy-sA67y1xf7-76" value="" style="endArrow=none;html=1;exitX=1;exitY=0.5;exitDx=0;exitDy=0;entryX=0.5;entryY=0;entryDx=0;entryDy=0;" parent="1" source="7-Smgg52Uy-sA67y1xf7-62" target="7-Smgg52Uy-sA67y1xf7-65" edge="1">
          <mxGeometry width="50" height="50" relative="1" as="geometry">
            <mxPoint x="-110" y="-320" as="sourcePoint" />
            <mxPoint x="-210" y="-265" as="targetPoint" />
          </mxGeometry>
        </mxCell>
        <mxCell id="7-Smgg52Uy-sA67y1xf7-77" value="" style="endArrow=none;html=1;entryX=0;entryY=0.5;entryDx=0;entryDy=0;exitX=1.002;exitY=0.212;exitDx=0;exitDy=0;exitPerimeter=0;" parent="1" source="7-Smgg52Uy-sA67y1xf7-38" target="7-Smgg52Uy-sA67y1xf7-37" edge="1">
          <mxGeometry width="50" height="50" relative="1" as="geometry">
            <mxPoint x="-240" y="144.71" as="sourcePoint" />
            <mxPoint x="-180" y="144.71" as="targetPoint" />
          </mxGeometry>
        </mxCell>
        <mxCell id="7-Smgg52Uy-sA67y1xf7-78" value="" style="endArrow=none;html=1;entryX=-0.013;entryY=0.207;entryDx=0;entryDy=0;entryPerimeter=0;exitX=1;exitY=0.5;exitDx=0;exitDy=0;" parent="1" source="7-Smgg52Uy-sA67y1xf7-37" target="7-Smgg52Uy-sA67y1xf7-2" edge="1">
          <mxGeometry width="50" height="50" relative="1" as="geometry">
            <mxPoint x="-60" y="144.5" as="sourcePoint" />
            <mxPoint y="144.5" as="targetPoint" />
          </mxGeometry>
        </mxCell>
        <mxCell id="7-Smgg52Uy-sA67y1xf7-79" value="" style="endArrow=none;html=1;exitX=0.5;exitY=0;exitDx=0;exitDy=0;entryX=0.25;entryY=1;entryDx=0;entryDy=0;" parent="1" source="7-Smgg52Uy-sA67y1xf7-52" target="7-Smgg52Uy-sA67y1xf7-40" edge="1">
          <mxGeometry width="50" height="50" relative="1" as="geometry">
            <mxPoint x="431" y="-65.5" as="sourcePoint" />
            <mxPoint x="156" y="-150" as="targetPoint" />
          </mxGeometry>
        </mxCell>
        <mxCell id="7-Smgg52Uy-sA67y1xf7-80" value="" style="endArrow=none;html=1;entryX=0.5;entryY=0;entryDx=0;entryDy=0;exitX=0.5;exitY=1;exitDx=0;exitDy=0;" parent="1" target="7-Smgg52Uy-sA67y1xf7-53" edge="1" source="7-Smgg52Uy-sA67y1xf7-43">
          <mxGeometry width="50" height="50" relative="1" as="geometry">
            <mxPoint x="422" y="405" as="sourcePoint" />
            <mxPoint x="460" y="370" as="targetPoint" />
          </mxGeometry>
        </mxCell>
        <mxCell id="7-Smgg52Uy-sA67y1xf7-81" value="" style="endArrow=none;html=1;exitX=0;exitY=0.5;exitDx=0;exitDy=0;" parent="1" source="7-Smgg52Uy-sA67y1xf7-53" edge="1">
          <mxGeometry width="50" height="50" relative="1" as="geometry">
            <mxPoint x="602" y="390" as="sourcePoint" />
            <mxPoint x="-550" y="400" as="targetPoint" />
          </mxGeometry>
        </mxCell>
        <mxCell id="7-Smgg52Uy-sA67y1xf7-82" value="" style="endArrow=none;html=1;entryX=0.5;entryY=1;entryDx=0;entryDy=0;exitX=0.5;exitY=0;exitDx=0;exitDy=0;" parent="1" source="7-Smgg52Uy-sA67y1xf7-40" target="7-Smgg52Uy-sA67y1xf7-57" edge="1">
          <mxGeometry width="50" height="50" relative="1" as="geometry">
            <mxPoint x="685" y="-62" as="sourcePoint" />
            <mxPoint x="761" y="-65.5" as="targetPoint" />
          </mxGeometry>
        </mxCell>
        <mxCell id="7-Smgg52Uy-sA67y1xf7-83" value="" style="endArrow=none;html=1;entryX=0.998;entryY=0.13;entryDx=0;entryDy=0;entryPerimeter=0;" parent="1" target="7-Smgg52Uy-sA67y1xf7-46" edge="1">
          <mxGeometry width="50" height="50" relative="1" as="geometry">
            <mxPoint x="200" y="-606" as="sourcePoint" />
            <mxPoint x="1036" y="-190" as="targetPoint" />
          </mxGeometry>
        </mxCell>
        <mxCell id="7-Smgg52Uy-sA67y1xf7-85" value="N:M" style="text;html=1;align=center;verticalAlign=middle;resizable=0;points=[];autosize=1;" parent="1" vertex="1">
          <mxGeometry x="-435" y="-65" width="50" height="30" as="geometry" />
        </mxCell>
        <mxCell id="7-Smgg52Uy-sA67y1xf7-86" value="(1,N)" style="text;html=1;align=center;verticalAlign=middle;resizable=0;points=[];autosize=1;" parent="1" vertex="1">
          <mxGeometry x="-380" y="100" width="40" height="20" as="geometry" />
        </mxCell>
        <mxCell id="7-Smgg52Uy-sA67y1xf7-87" value="(0,N)" style="text;html=1;align=center;verticalAlign=middle;resizable=0;points=[];autosize=1;" parent="1" vertex="1">
          <mxGeometry x="-250" y="-570" width="40" height="20" as="geometry" />
        </mxCell>
        <mxCell id="7-Smgg52Uy-sA67y1xf7-88" value="(0,N)" style="text;html=1;align=center;verticalAlign=middle;resizable=0;points=[];autosize=1;" parent="1" vertex="1">
          <mxGeometry x="5" y="-155" width="40" height="20" as="geometry" />
        </mxCell>
        <mxCell id="7-Smgg52Uy-sA67y1xf7-89" value="1:N" style="text;html=1;align=center;verticalAlign=middle;resizable=0;points=[];autosize=1;" parent="1" vertex="1">
          <mxGeometry x="305" y="170" width="30" height="20" as="geometry" />
        </mxCell>
        <mxCell id="7-Smgg52Uy-sA67y1xf7-90" value="(1,N)" style="text;html=1;align=center;verticalAlign=middle;resizable=0;points=[];autosize=1;" parent="1" vertex="1">
          <mxGeometry x="200" y="150" width="40" height="20" as="geometry" />
        </mxCell>
        <mxCell id="7-Smgg52Uy-sA67y1xf7-91" value="(0,N)" style="text;html=1;align=center;verticalAlign=middle;resizable=0;points=[];autosize=1;" parent="1" vertex="1">
          <mxGeometry x="400" y="150" width="40" height="20" as="geometry" />
        </mxCell>
        <mxCell id="7-Smgg52Uy-sA67y1xf7-92" value="N:M" style="text;html=1;align=center;verticalAlign=middle;resizable=0;points=[];autosize=1;" parent="1" vertex="1">
          <mxGeometry x="-40" y="-60" width="40" height="20" as="geometry" />
        </mxCell>
        <mxCell id="7-Smgg52Uy-sA67y1xf7-93" value="(1,N)" style="text;html=1;align=center;verticalAlign=middle;resizable=0;points=[];autosize=1;" parent="1" vertex="1">
          <mxGeometry x="50" y="90" width="40" height="20" as="geometry" />
        </mxCell>
        <mxCell id="7-Smgg52Uy-sA67y1xf7-94" value="N:M" style="text;html=1;align=center;verticalAlign=middle;resizable=0;points=[];autosize=1;" parent="1" vertex="1">
          <mxGeometry x="472" y="370" width="40" height="20" as="geometry" />
        </mxCell>
        <mxCell id="7-Smgg52Uy-sA67y1xf7-95" value="(1,N)" style="text;html=1;align=center;verticalAlign=middle;resizable=0;points=[];autosize=1;" parent="1" vertex="1">
          <mxGeometry x="490" y="240" width="40" height="20" as="geometry" />
        </mxCell>
        <mxCell id="7-Smgg52Uy-sA67y1xf7-96" value="(1,N)" style="text;html=1;align=center;verticalAlign=middle;resizable=0;points=[];autosize=1;" parent="1" vertex="1">
          <mxGeometry x="-255" y="-630" width="40" height="20" as="geometry" />
        </mxCell>
        <mxCell id="7-Smgg52Uy-sA67y1xf7-97" value="N:M" style="text;html=1;align=center;verticalAlign=middle;resizable=0;points=[];autosize=1;fillColor=default;" parent="1" vertex="1">
          <mxGeometry x="110" y="-532.5" width="40" height="20" as="geometry" />
        </mxCell>
        <mxCell id="7-Smgg52Uy-sA67y1xf7-98" value="(1,N)" style="text;html=1;align=center;verticalAlign=middle;resizable=0;points=[];autosize=1;" parent="1" vertex="1">
          <mxGeometry x="-30" y="-630.5" width="40" height="20" as="geometry" />
        </mxCell>
        <mxCell id="7-Smgg52Uy-sA67y1xf7-99" value="(0,N)" style="text;html=1;align=center;verticalAlign=middle;resizable=0;points=[];autosize=1;" parent="1" vertex="1">
          <mxGeometry x="150" y="-155" width="40" height="20" as="geometry" />
        </mxCell>
        <mxCell id="7-Smgg52Uy-sA67y1xf7-100" value="1:N" style="text;html=1;align=center;verticalAlign=middle;resizable=0;points=[];autosize=1;" parent="1" vertex="1">
          <mxGeometry x="205" y="-60" width="30" height="20" as="geometry" />
        </mxCell>
        <mxCell id="7-Smgg52Uy-sA67y1xf7-101" value="" style="endArrow=none;html=1;exitX=0.5;exitY=1;exitDx=0;exitDy=0;entryX=0.75;entryY=0;entryDx=0;entryDy=0;" parent="1" source="7-Smgg52Uy-sA67y1xf7-52" target="7-Smgg52Uy-sA67y1xf7-2" edge="1">
          <mxGeometry width="50" height="50" relative="1" as="geometry">
            <mxPoint x="506" y="-55" as="sourcePoint" />
            <mxPoint x="176" y="-190" as="targetPoint" />
          </mxGeometry>
        </mxCell>
        <mxCell id="7-Smgg52Uy-sA67y1xf7-102" value="(0,N)" style="text;html=1;align=center;verticalAlign=middle;resizable=0;points=[];autosize=1;" parent="1" vertex="1">
          <mxGeometry x="160" y="-295" width="40" height="20" as="geometry" />
        </mxCell>
        <mxCell id="7-Smgg52Uy-sA67y1xf7-103" value="(0:N)" style="text;html=1;align=center;verticalAlign=middle;resizable=0;points=[];autosize=1;" parent="1" vertex="1">
          <mxGeometry x="160" y="90" width="40" height="20" as="geometry" />
        </mxCell>
        <mxCell id="7-Smgg52Uy-sA67y1xf7-104" value="(1,N)" style="text;html=1;align=center;verticalAlign=middle;resizable=0;points=[];autosize=1;" parent="1" vertex="1">
          <mxGeometry x="-250" y="120" width="40" height="20" as="geometry" />
        </mxCell>
        <mxCell id="7-Smgg52Uy-sA67y1xf7-105" value="1:N" style="text;html=1;align=center;verticalAlign=middle;resizable=0;points=[];autosize=1;" parent="1" vertex="1">
          <mxGeometry x="-135" y="100" width="30" height="20" as="geometry" />
        </mxCell>
        <mxCell id="7-Smgg52Uy-sA67y1xf7-106" value="(0,N)" style="text;html=1;align=center;verticalAlign=middle;resizable=0;points=[];autosize=1;" parent="1" vertex="1">
          <mxGeometry x="-20" y="120" width="40" height="20" as="geometry" />
        </mxCell>
        <mxCell id="i49qwFXdwWi4mfqq8toA-2" value="Rodrigo" style="shape=umlActor;verticalLabelPosition=bottom;verticalAlign=top;html=1;outlineConnect=0;rotation=-174;" parent="1" vertex="1">
          <mxGeometry x="-338.62" y="-1450.81" width="70.15" height="120" as="geometry" />
        </mxCell>
        <mxCell id="i49qwFXdwWi4mfqq8toA-3" value="Rodrigo&lt;br&gt;capacitado" style="shape=umlActor;verticalLabelPosition=bottom;verticalAlign=top;html=1;outlineConnect=0;" parent="1" vertex="1">
          <mxGeometry y="-380" width="30" height="60" as="geometry" />
        </mxCell>
        <mxCell id="i49qwFXdwWi4mfqq8toA-4" value="Rodrigo&lt;br&gt;descapacitado" style="shape=umlActor;verticalLabelPosition=bottom;verticalAlign=top;html=1;outlineConnect=0;" parent="1" vertex="1">
          <mxGeometry x="-270" y="-380" width="30" height="60" as="geometry" />
        </mxCell>
        <mxCell id="i49qwFXdwWi4mfqq8toA-5" value="" style="whiteSpace=wrap;html=1;aspect=fixed;strokeColor=#FFFFFF;" parent="1" vertex="1">
          <mxGeometry x="-250" y="-349" width="30" height="30" as="geometry" />
        </mxCell>
        <mxCell id="i49qwFXdwWi4mfqq8toA-6" value="" style="endArrow=none;html=1;exitX=-0.043;exitY=0.777;exitDx=0;exitDy=0;exitPerimeter=0;" parent="1" source="i49qwFXdwWi4mfqq8toA-5" edge="1">
          <mxGeometry width="50" height="50" relative="1" as="geometry">
            <mxPoint x="-228.5" y="-319" as="sourcePoint" />
            <mxPoint x="-251" y="-335" as="targetPoint" />
          </mxGeometry>
        </mxCell>
        <mxCell id="i49qwFXdwWi4mfqq8toA-7" value="" style="whiteSpace=wrap;html=1;aspect=fixed;strokeColor=#FFFFFF;" parent="1" vertex="1">
          <mxGeometry x="-290" y="-365" width="30" height="30" as="geometry" />
        </mxCell>
        <mxCell id="i49qwFXdwWi4mfqq8toA-8" value="" style="endArrow=none;html=1;exitX=1;exitY=0;exitDx=0;exitDy=0;" parent="1" source="i49qwFXdwWi4mfqq8toA-7" edge="1">
          <mxGeometry width="50" height="50" relative="1" as="geometry">
            <mxPoint x="-309" y="-310" as="sourcePoint" />
            <mxPoint x="-259" y="-360" as="targetPoint" />
          </mxGeometry>
        </mxCell>
        <mxCell id="i49qwFXdwWi4mfqq8toA-9" value="" style="endArrow=classic;html=1;" parent="1" edge="1">
          <mxGeometry width="50" height="50" relative="1" as="geometry">
            <mxPoint x="-230" y="-360" as="sourcePoint" />
            <mxPoint x="-180" y="-360" as="targetPoint" />
          </mxGeometry>
        </mxCell>
        <mxCell id="i49qwFXdwWi4mfqq8toA-10" value="" style="shape=xor;whiteSpace=wrap;html=1;strokeColor=#000000;fillColor=none;" parent="1" vertex="1">
          <mxGeometry x="-235" y="-382" width="30" height="44" as="geometry" />
        </mxCell>
        <mxCell id="i49qwFXdwWi4mfqq8toA-11" value="" style="ellipse;whiteSpace=wrap;html=1;strokeColor=#000000;fillColor=#E6E6E6;rotation=-95;" parent="1" vertex="1">
          <mxGeometry x="-30" y="-375" width="50" height="30" as="geometry" />
        </mxCell>
        <mxCell id="i49qwFXdwWi4mfqq8toA-12" value="" style="ellipse;whiteSpace=wrap;html=1;strokeColor=#000000;fillColor=#CCCCCC;rotation=-90;" parent="1" vertex="1">
          <mxGeometry x="-15" y="-367.5" width="20" height="15" as="geometry" />
        </mxCell>
        <mxCell id="i49qwFXdwWi4mfqq8toA-17" value="" style="shape=mxgraph.bpmn.manual_task;html=1;outlineConnect=0;strokeColor=#000000;fillColor=#FFFFFF;" parent="1" vertex="1">
          <mxGeometry x="-242" y="-363.75" width="14" height="7.5" as="geometry" />
        </mxCell>
        <mxCell id="i49qwFXdwWi4mfqq8toA-20" value="" style="shape=mxgraph.bpmn.shape;html=1;verticalLabelPosition=bottom;labelBackgroundColor=#ffffff;verticalAlign=top;align=center;perimeter=ellipsePerimeter;outlineConnect=0;outline=boundInt;symbol=parallelMultiple;strokeColor=#000000;fillColor=#FFFFFF;" parent="1" vertex="1">
          <mxGeometry x="-340" y="-271" width="30" height="25" as="geometry" />
        </mxCell>
        <mxCell id="i49qwFXdwWi4mfqq8toA-21" value="" style="rounded=0;whiteSpace=wrap;html=1;strokeColor=#000000;fillColor=#97D077;rotation=-90;" parent="1" vertex="1">
          <mxGeometry x="-350.5" y="-1183.5" width="80" height="15" as="geometry" />
        </mxCell>
        <mxCell id="i49qwFXdwWi4mfqq8toA-22" value="" style="shape=xor;whiteSpace=wrap;html=1;strokeColor=#000000;fillColor=#FF0000;rotation=90;" parent="1" vertex="1">
          <mxGeometry x="-335.5" y="-1278.5" width="50" height="80" as="geometry" />
        </mxCell>
        <mxCell id="k22lOryHHmgSbOlUSeE7-1" value="" style="shape=or;whiteSpace=wrap;html=1;strokeColor=none;rotation=-80;" parent="1" vertex="1">
          <mxGeometry x="-325.11" y="-1230.73" width="15.22" height="17.23" as="geometry" />
        </mxCell>
        <mxCell id="k22lOryHHmgSbOlUSeE7-2" value="" style="shape=or;whiteSpace=wrap;html=1;strokeColor=none;rotation=-35;" parent="1" vertex="1">
          <mxGeometry x="-346.71000000000004" y="-1240.5" width="15.22" height="17.23" as="geometry" />
        </mxCell>
        <mxCell id="k22lOryHHmgSbOlUSeE7-3" value="" style="shape=or;whiteSpace=wrap;html=1;strokeColor=none;rotation=-6;" parent="1" vertex="1">
          <mxGeometry x="-358" y="-1257.73" width="15.22" height="17.23" as="geometry" />
        </mxCell>
        <mxCell id="k22lOryHHmgSbOlUSeE7-4" value="" style="shape=or;whiteSpace=wrap;html=1;strokeColor=none;rotation=-107;" parent="1" vertex="1">
          <mxGeometry x="-300.72" y="-1230.73" width="15.22" height="17.23" as="geometry" />
        </mxCell>
        <mxCell id="k22lOryHHmgSbOlUSeE7-5" value="" style="shape=or;whiteSpace=wrap;html=1;strokeColor=none;rotation=-170;" parent="1" vertex="1">
          <mxGeometry x="-275.5" y="-1260.44" width="15" height="20" as="geometry" />
        </mxCell>
        <mxCell id="k22lOryHHmgSbOlUSeE7-6" value="" style="ellipse;whiteSpace=wrap;html=1;aspect=fixed;fillColor=#FFFFFF;strokeColor=none;" parent="1" vertex="1">
          <mxGeometry x="-304.73" y="-1249.96" width="19.23" height="19.23" as="geometry" />
        </mxCell>
        <mxCell id="k22lOryHHmgSbOlUSeE7-7" value="" style="ellipse;whiteSpace=wrap;html=1;aspect=fixed;fillColor=#FFFFFF;strokeColor=none;" parent="1" vertex="1">
          <mxGeometry x="-332.01" y="-1249.96" width="19.23" height="19.23" as="geometry" />
        </mxCell>
        <mxCell id="k22lOryHHmgSbOlUSeE7-8" value="" style="shape=or;whiteSpace=wrap;html=1;strokeColor=none;rotation=-135;" parent="1" vertex="1">
          <mxGeometry x="-285.5" y="-1241.8899999999999" width="15" height="20" as="geometry" />
        </mxCell>
        <mxCell id="k22lOryHHmgSbOlUSeE7-9" value="" style="shape=xor;whiteSpace=wrap;html=1;strokeColor=#000000;fillColor=none;rotation=90;" parent="1" vertex="1">
          <mxGeometry x="-335.5" y="-1279.05" width="50" height="80" as="geometry" />
        </mxCell>
        <mxCell id="k22lOryHHmgSbOlUSeE7-10" value="" style="shape=xor;whiteSpace=wrap;html=1;strokeColor=#000000;fillColor=none;rotation=90;" parent="1" vertex="1">
          <mxGeometry x="-335.5" y="-1278.05" width="50" height="80" as="geometry" />
        </mxCell>
        <mxCell id="i49qwFXdwWi4mfqq8toA-24" value="" style="triangle;whiteSpace=wrap;html=1;strokeColor=#000000;fillColor=#FFFFFF;rotation=-75;" parent="1" vertex="1">
          <mxGeometry x="-351.6" y="-1276.68" width="25" height="13.55" as="geometry" />
        </mxCell>
        <mxCell id="k22lOryHHmgSbOlUSeE7-12" value="" style="verticalLabelPosition=bottom;verticalAlign=top;html=1;shape=mxgraph.basic.wave2;dy=0.3;fillColor=#FFFFFF;" parent="1" vertex="1">
          <mxGeometry x="-378" y="-1266.8899999999999" width="133" height="20" as="geometry" />
        </mxCell>
        <mxCell id="k22lOryHHmgSbOlUSeE7-14" value="" style="verticalLabelPosition=bottom;verticalAlign=top;html=1;shape=mxgraph.basic.rect;fillColor2=none;strokeWidth=1;size=20;indent=5;fillColor=#FFFFFF;strokeColor=none;" parent="1" vertex="1">
          <mxGeometry x="-398" y="-1302.8899999999999" width="45" height="60" as="geometry" />
        </mxCell>
        <mxCell id="k22lOryHHmgSbOlUSeE7-17" value="" style="curved=1;endArrow=classic;html=1;exitX=1.026;exitY=0.84;exitDx=0;exitDy=0;exitPerimeter=0;" parent="1" source="k22lOryHHmgSbOlUSeE7-14" edge="1">
          <mxGeometry width="50" height="50" relative="1" as="geometry">
            <mxPoint x="-430.5" y="-1213.5" as="sourcePoint" />
            <mxPoint x="-351.5" y="-1313.5" as="targetPoint" />
            <Array as="points">
              <mxPoint x="-360.5" y="-1252.5" />
              <mxPoint x="-360.5" y="-1272.5" />
              <mxPoint x="-330.5" y="-1263.5" />
            </Array>
          </mxGeometry>
        </mxCell>
        <mxCell id="k22lOryHHmgSbOlUSeE7-21" value="" style="verticalLabelPosition=bottom;verticalAlign=top;html=1;shape=mxgraph.basic.rect;fillColor2=none;strokeWidth=1;size=20;indent=5;fillColor=#FFFFFF;strokeColor=none;rotation=30;" parent="1" vertex="1">
          <mxGeometry x="-371.71000000000004" y="-1330.81" width="45" height="52" as="geometry" />
        </mxCell>
        <mxCell id="k22lOryHHmgSbOlUSeE7-22" value="" style="triangle;whiteSpace=wrap;html=1;fillColor=#FFFFFF;rotation=-75;strokeColor=none;" parent="1" vertex="1">
          <mxGeometry x="-345.6600000000001" y="-1276.05" width="13.12" height="6.77" as="geometry" />
        </mxCell>
        <mxCell id="k22lOryHHmgSbOlUSeE7-15" value="" style="verticalLabelPosition=bottom;verticalAlign=top;html=1;shape=mxgraph.basic.rect;fillColor2=none;strokeWidth=1;size=20;indent=5;fillColor=#FFFFFF;strokeColor=none;" parent="1" vertex="1">
          <mxGeometry x="-268" y="-1301.8899999999999" width="45" height="60" as="geometry" />
        </mxCell>
        <mxCell id="k22lOryHHmgSbOlUSeE7-27" value="" style="curved=1;endArrow=classic;html=1;exitX=-0.004;exitY=0.819;exitDx=0;exitDy=0;exitPerimeter=0;" parent="1" source="k22lOryHHmgSbOlUSeE7-15" edge="1">
          <mxGeometry width="50" height="50" relative="1" as="geometry">
            <mxPoint x="-251.8299999999997" y="-1249.9899999999998" as="sourcePoint" />
            <mxPoint x="-251.5" y="-1311" as="targetPoint" />
            <Array as="points">
              <mxPoint x="-251.5" y="-1269.5" />
              <mxPoint x="-290.5" y="-1269.5" />
            </Array>
          </mxGeometry>
        </mxCell>
        <mxCell id="k22lOryHHmgSbOlUSeE7-28" value="" style="verticalLabelPosition=bottom;verticalAlign=top;html=1;shape=mxgraph.basic.rect;fillColor2=none;strokeWidth=1;size=20;indent=5;fillColor=#FFFFFF;strokeColor=none;rotation=-30;" parent="1" vertex="1">
          <mxGeometry x="-293.5" y="-1338.05" width="45" height="60" as="geometry" />
        </mxCell>
        <mxCell id="k22lOryHHmgSbOlUSeE7-29" value="" style="triangle;whiteSpace=wrap;html=1;fillColor=#FFFFFF;rotation=-105;strokeColor=none;" parent="1" vertex="1">
          <mxGeometry x="-286.55999999999995" y="-1276.6799999999998" width="13.12" height="6.77" as="geometry" />
        </mxCell>
        <mxCell id="k22lOryHHmgSbOlUSeE7-36" value="" style="rounded=0;whiteSpace=wrap;html=1;strokeColor=#BF7326;fillColor=#613200;" parent="1" vertex="1">
          <mxGeometry x="-365.5" y="-1099.5" width="26" height="12" as="geometry" />
        </mxCell>
        <mxCell id="k22lOryHHmgSbOlUSeE7-37" value="" style="rounded=0;whiteSpace=wrap;html=1;strokeColor=#FF9933;fillColor=#613200;" parent="1" vertex="1">
          <mxGeometry x="-334.5" y="-1099.5" width="26" height="12" as="geometry" />
        </mxCell>
        <mxCell id="k22lOryHHmgSbOlUSeE7-38" value="" style="rounded=0;whiteSpace=wrap;html=1;strokeColor=#FF9933;fillColor=#613200;" parent="1" vertex="1">
          <mxGeometry x="-365.5" y="-1083.05" width="6" height="12" as="geometry" />
        </mxCell>
        <mxCell id="k22lOryHHmgSbOlUSeE7-39" value="" style="rounded=0;whiteSpace=wrap;html=1;strokeColor=#FF9933;fillColor=#613200;" parent="1" vertex="1">
          <mxGeometry x="-355.5" y="-1083.05" width="27" height="12" as="geometry" />
        </mxCell>
        <mxCell id="k22lOryHHmgSbOlUSeE7-41" value="" style="rounded=0;whiteSpace=wrap;html=1;strokeColor=#FF9933;fillColor=#613200;" parent="1" vertex="1">
          <mxGeometry x="-324.5" y="-1083.05" width="16" height="12" as="geometry" />
        </mxCell>
        <mxCell id="k22lOryHHmgSbOlUSeE7-42" value="" style="rounded=0;whiteSpace=wrap;html=1;strokeColor=#FF9933;fillColor=#613200;" parent="1" vertex="1">
          <mxGeometry x="-365.5" y="-1067.5" width="26" height="12" as="geometry" />
        </mxCell>
        <mxCell id="k22lOryHHmgSbOlUSeE7-43" value="" style="rounded=0;whiteSpace=wrap;html=1;strokeColor=#FF9933;fillColor=#613200;" parent="1" vertex="1">
          <mxGeometry x="-334.5" y="-1067.5" width="26" height="12" as="geometry" />
        </mxCell>
        <mxCell id="k22lOryHHmgSbOlUSeE7-45" value="" style="rounded=0;whiteSpace=wrap;html=1;strokeColor=none;fillColor=#3B1D00;" parent="1" vertex="1">
          <mxGeometry x="-308.5" y="-1098.5" width="56" height="42" as="geometry" />
        </mxCell>
        <mxCell id="k22lOryHHmgSbOlUSeE7-46" value="" style="rounded=0;whiteSpace=wrap;html=1;strokeColor=#BF7326;fillColor=#613200;" parent="1" vertex="1">
          <mxGeometry x="-308.5" y="-1099.5" width="26" height="12" as="geometry" />
        </mxCell>
        <mxCell id="k22lOryHHmgSbOlUSeE7-47" value="" style="rounded=0;whiteSpace=wrap;html=1;strokeColor=#FF9933;fillColor=#613200;" parent="1" vertex="1">
          <mxGeometry x="-277.5" y="-1099.5" width="26" height="12" as="geometry" />
        </mxCell>
        <mxCell id="k22lOryHHmgSbOlUSeE7-48" value="" style="rounded=0;whiteSpace=wrap;html=1;strokeColor=#FF9933;fillColor=#613200;" parent="1" vertex="1">
          <mxGeometry x="-308.5" y="-1083.05" width="6" height="12" as="geometry" />
        </mxCell>
        <mxCell id="k22lOryHHmgSbOlUSeE7-49" value="" style="rounded=0;whiteSpace=wrap;html=1;strokeColor=#FF9933;fillColor=#613200;" parent="1" vertex="1">
          <mxGeometry x="-298.5" y="-1083.05" width="27" height="12" as="geometry" />
        </mxCell>
        <mxCell id="k22lOryHHmgSbOlUSeE7-50" value="" style="rounded=0;whiteSpace=wrap;html=1;strokeColor=#FF9933;fillColor=#613200;" parent="1" vertex="1">
          <mxGeometry x="-267.5" y="-1083.05" width="16" height="12" as="geometry" />
        </mxCell>
        <mxCell id="k22lOryHHmgSbOlUSeE7-51" value="" style="rounded=0;whiteSpace=wrap;html=1;strokeColor=#FF9933;fillColor=#613200;" parent="1" vertex="1">
          <mxGeometry x="-308.5" y="-1067.5" width="26" height="12" as="geometry" />
        </mxCell>
        <mxCell id="k22lOryHHmgSbOlUSeE7-52" value="" style="rounded=0;whiteSpace=wrap;html=1;strokeColor=#FF9933;fillColor=#613200;" parent="1" vertex="1">
          <mxGeometry x="-277.5" y="-1067.5" width="26" height="12" as="geometry" />
        </mxCell>
        <mxCell id="k22lOryHHmgSbOlUSeE7-61" value="" style="rounded=0;whiteSpace=wrap;html=1;strokeColor=none;fillColor=#3B1D00;" parent="1" vertex="1">
          <mxGeometry x="-422.5" y="-1098.5" width="56" height="42" as="geometry" />
        </mxCell>
        <mxCell id="k22lOryHHmgSbOlUSeE7-62" value="" style="rounded=0;whiteSpace=wrap;html=1;strokeColor=#BF7326;fillColor=#613200;" parent="1" vertex="1">
          <mxGeometry x="-422.5" y="-1099.5" width="26" height="12" as="geometry" />
        </mxCell>
        <mxCell id="k22lOryHHmgSbOlUSeE7-63" value="" style="rounded=0;whiteSpace=wrap;html=1;strokeColor=#FF9933;fillColor=#613200;" parent="1" vertex="1">
          <mxGeometry x="-391.5" y="-1099.5" width="26" height="12" as="geometry" />
        </mxCell>
        <mxCell id="k22lOryHHmgSbOlUSeE7-64" value="" style="rounded=0;whiteSpace=wrap;html=1;strokeColor=#FF9933;fillColor=#613200;" parent="1" vertex="1">
          <mxGeometry x="-422.5" y="-1083.05" width="6" height="12" as="geometry" />
        </mxCell>
        <mxCell id="k22lOryHHmgSbOlUSeE7-65" value="" style="rounded=0;whiteSpace=wrap;html=1;strokeColor=#FF9933;fillColor=#613200;" parent="1" vertex="1">
          <mxGeometry x="-412.5" y="-1083.05" width="27" height="12" as="geometry" />
        </mxCell>
        <mxCell id="k22lOryHHmgSbOlUSeE7-66" value="" style="rounded=0;whiteSpace=wrap;html=1;strokeColor=#FF9933;fillColor=#613200;" parent="1" vertex="1">
          <mxGeometry x="-381.5" y="-1083.05" width="16" height="12" as="geometry" />
        </mxCell>
        <mxCell id="k22lOryHHmgSbOlUSeE7-67" value="" style="rounded=0;whiteSpace=wrap;html=1;strokeColor=#FF9933;fillColor=#613200;" parent="1" vertex="1">
          <mxGeometry x="-422.5" y="-1067.5" width="26" height="12" as="geometry" />
        </mxCell>
        <mxCell id="k22lOryHHmgSbOlUSeE7-68" value="" style="rounded=0;whiteSpace=wrap;html=1;strokeColor=#FF9933;fillColor=#613200;" parent="1" vertex="1">
          <mxGeometry x="-391.5" y="-1067.5" width="26" height="12" as="geometry" />
        </mxCell>
        <mxCell id="k22lOryHHmgSbOlUSeE7-69" value="" style="rounded=0;whiteSpace=wrap;html=1;strokeColor=none;fillColor=#3B1D00;" parent="1" vertex="1">
          <mxGeometry x="-251.5" y="-1098.5" width="56" height="42" as="geometry" />
        </mxCell>
        <mxCell id="k22lOryHHmgSbOlUSeE7-70" value="" style="rounded=0;whiteSpace=wrap;html=1;strokeColor=#BF7326;fillColor=#613200;" parent="1" vertex="1">
          <mxGeometry x="-251.5" y="-1099.5" width="26" height="12" as="geometry" />
        </mxCell>
        <mxCell id="k22lOryHHmgSbOlUSeE7-71" value="" style="rounded=0;whiteSpace=wrap;html=1;strokeColor=#FF9933;fillColor=#613200;" parent="1" vertex="1">
          <mxGeometry x="-220.5" y="-1099.5" width="26" height="12" as="geometry" />
        </mxCell>
        <mxCell id="k22lOryHHmgSbOlUSeE7-72" value="" style="rounded=0;whiteSpace=wrap;html=1;strokeColor=#FF9933;fillColor=#613200;" parent="1" vertex="1">
          <mxGeometry x="-251.5" y="-1083.05" width="6" height="12" as="geometry" />
        </mxCell>
        <mxCell id="k22lOryHHmgSbOlUSeE7-73" value="" style="rounded=0;whiteSpace=wrap;html=1;strokeColor=#FF9933;fillColor=#613200;" parent="1" vertex="1">
          <mxGeometry x="-241.5" y="-1083.05" width="27" height="12" as="geometry" />
        </mxCell>
        <mxCell id="k22lOryHHmgSbOlUSeE7-74" value="" style="rounded=0;whiteSpace=wrap;html=1;strokeColor=#FF9933;fillColor=#613200;" parent="1" vertex="1">
          <mxGeometry x="-210.5" y="-1083.05" width="16" height="12" as="geometry" />
        </mxCell>
        <mxCell id="k22lOryHHmgSbOlUSeE7-75" value="" style="rounded=0;whiteSpace=wrap;html=1;strokeColor=#FF9933;fillColor=#613200;" parent="1" vertex="1">
          <mxGeometry x="-251.5" y="-1067.5" width="26" height="12" as="geometry" />
        </mxCell>
        <mxCell id="k22lOryHHmgSbOlUSeE7-76" value="" style="rounded=0;whiteSpace=wrap;html=1;strokeColor=#FF9933;fillColor=#613200;" parent="1" vertex="1">
          <mxGeometry x="-220.5" y="-1067.5" width="26" height="12" as="geometry" />
        </mxCell>
        <mxCell id="k22lOryHHmgSbOlUSeE7-93" value="" style="rounded=0;whiteSpace=wrap;html=1;strokeColor=none;fillColor=#3B1D00;" parent="1" vertex="1">
          <mxGeometry x="-479.5" y="-1098.5" width="56" height="42" as="geometry" />
        </mxCell>
        <mxCell id="k22lOryHHmgSbOlUSeE7-94" value="" style="rounded=0;whiteSpace=wrap;html=1;strokeColor=#BF7326;fillColor=#613200;" parent="1" vertex="1">
          <mxGeometry x="-479.5" y="-1099.5" width="26" height="12" as="geometry" />
        </mxCell>
        <mxCell id="k22lOryHHmgSbOlUSeE7-95" value="" style="rounded=0;whiteSpace=wrap;html=1;strokeColor=#FF9933;fillColor=#613200;" parent="1" vertex="1">
          <mxGeometry x="-448.5" y="-1099.5" width="26" height="12" as="geometry" />
        </mxCell>
        <mxCell id="k22lOryHHmgSbOlUSeE7-96" value="" style="rounded=0;whiteSpace=wrap;html=1;strokeColor=#FF9933;fillColor=#613200;" parent="1" vertex="1">
          <mxGeometry x="-479.5" y="-1083.05" width="6" height="12" as="geometry" />
        </mxCell>
        <mxCell id="k22lOryHHmgSbOlUSeE7-97" value="" style="rounded=0;whiteSpace=wrap;html=1;strokeColor=#FF9933;fillColor=#613200;" parent="1" vertex="1">
          <mxGeometry x="-469.5" y="-1083.05" width="27" height="12" as="geometry" />
        </mxCell>
        <mxCell id="k22lOryHHmgSbOlUSeE7-98" value="" style="rounded=0;whiteSpace=wrap;html=1;strokeColor=#FF9933;fillColor=#613200;" parent="1" vertex="1">
          <mxGeometry x="-438.5" y="-1083.05" width="16" height="12" as="geometry" />
        </mxCell>
        <mxCell id="k22lOryHHmgSbOlUSeE7-99" value="" style="rounded=0;whiteSpace=wrap;html=1;strokeColor=#FF9933;fillColor=#613200;" parent="1" vertex="1">
          <mxGeometry x="-479.5" y="-1067.5" width="26" height="12" as="geometry" />
        </mxCell>
        <mxCell id="k22lOryHHmgSbOlUSeE7-100" value="" style="rounded=0;whiteSpace=wrap;html=1;strokeColor=#FF9933;fillColor=#613200;" parent="1" vertex="1">
          <mxGeometry x="-448.5" y="-1067.5" width="26" height="12" as="geometry" />
        </mxCell>
        <mxCell id="k22lOryHHmgSbOlUSeE7-101" value="" style="rounded=0;whiteSpace=wrap;html=1;strokeColor=none;fillColor=#3B1D00;" parent="1" vertex="1">
          <mxGeometry x="-194.5" y="-1098.5" width="56" height="42" as="geometry" />
        </mxCell>
        <mxCell id="k22lOryHHmgSbOlUSeE7-102" value="" style="rounded=0;whiteSpace=wrap;html=1;strokeColor=#BF7326;fillColor=#613200;" parent="1" vertex="1">
          <mxGeometry x="-194.5" y="-1099.5" width="26" height="12" as="geometry" />
        </mxCell>
        <mxCell id="k22lOryHHmgSbOlUSeE7-103" value="" style="rounded=0;whiteSpace=wrap;html=1;strokeColor=#FF9933;fillColor=#613200;" parent="1" vertex="1">
          <mxGeometry x="-163.5" y="-1099.5" width="26" height="12" as="geometry" />
        </mxCell>
        <mxCell id="k22lOryHHmgSbOlUSeE7-104" value="" style="rounded=0;whiteSpace=wrap;html=1;strokeColor=#FF9933;fillColor=#613200;" parent="1" vertex="1">
          <mxGeometry x="-194.5" y="-1083.05" width="6" height="12" as="geometry" />
        </mxCell>
        <mxCell id="k22lOryHHmgSbOlUSeE7-105" value="" style="rounded=0;whiteSpace=wrap;html=1;strokeColor=#FF9933;fillColor=#613200;" parent="1" vertex="1">
          <mxGeometry x="-184.5" y="-1083.05" width="27" height="12" as="geometry" />
        </mxCell>
        <mxCell id="k22lOryHHmgSbOlUSeE7-106" value="" style="rounded=0;whiteSpace=wrap;html=1;strokeColor=#FF9933;fillColor=#613200;" parent="1" vertex="1">
          <mxGeometry x="-153.5" y="-1083.05" width="16" height="12" as="geometry" />
        </mxCell>
        <mxCell id="k22lOryHHmgSbOlUSeE7-107" value="" style="rounded=0;whiteSpace=wrap;html=1;strokeColor=#FF9933;fillColor=#613200;" parent="1" vertex="1">
          <mxGeometry x="-194.5" y="-1067.5" width="26" height="12" as="geometry" />
        </mxCell>
        <mxCell id="k22lOryHHmgSbOlUSeE7-108" value="" style="rounded=0;whiteSpace=wrap;html=1;strokeColor=#FF9933;fillColor=#613200;" parent="1" vertex="1">
          <mxGeometry x="-163.5" y="-1067.5" width="26" height="12" as="geometry" />
        </mxCell>
        <mxCell id="k22lOryHHmgSbOlUSeE7-109" value="" style="rounded=0;whiteSpace=wrap;html=1;strokeColor=none;fillColor=#3B1D00;" parent="1" vertex="1">
          <mxGeometry x="-137.5" y="-1098.5" width="56" height="42" as="geometry" />
        </mxCell>
        <mxCell id="k22lOryHHmgSbOlUSeE7-110" value="" style="rounded=0;whiteSpace=wrap;html=1;strokeColor=#BF7326;fillColor=#613200;" parent="1" vertex="1">
          <mxGeometry x="-137.5" y="-1099.5" width="26" height="12" as="geometry" />
        </mxCell>
        <mxCell id="k22lOryHHmgSbOlUSeE7-111" value="" style="rounded=0;whiteSpace=wrap;html=1;strokeColor=#FF9933;fillColor=#613200;" parent="1" vertex="1">
          <mxGeometry x="-106.5" y="-1099.5" width="26" height="12" as="geometry" />
        </mxCell>
        <mxCell id="k22lOryHHmgSbOlUSeE7-112" value="" style="rounded=0;whiteSpace=wrap;html=1;strokeColor=#FF9933;fillColor=#613200;" parent="1" vertex="1">
          <mxGeometry x="-137.5" y="-1083.05" width="6" height="12" as="geometry" />
        </mxCell>
        <mxCell id="k22lOryHHmgSbOlUSeE7-113" value="" style="rounded=0;whiteSpace=wrap;html=1;strokeColor=#FF9933;fillColor=#613200;" parent="1" vertex="1">
          <mxGeometry x="-127.5" y="-1083.05" width="27" height="12" as="geometry" />
        </mxCell>
        <mxCell id="k22lOryHHmgSbOlUSeE7-114" value="" style="rounded=0;whiteSpace=wrap;html=1;strokeColor=#FF9933;fillColor=#613200;" parent="1" vertex="1">
          <mxGeometry x="-96.5" y="-1083.05" width="16" height="12" as="geometry" />
        </mxCell>
        <mxCell id="k22lOryHHmgSbOlUSeE7-115" value="" style="rounded=0;whiteSpace=wrap;html=1;strokeColor=#FF9933;fillColor=#613200;" parent="1" vertex="1">
          <mxGeometry x="-137.5" y="-1067.5" width="26" height="12" as="geometry" />
        </mxCell>
        <mxCell id="k22lOryHHmgSbOlUSeE7-116" value="" style="rounded=0;whiteSpace=wrap;html=1;strokeColor=#FF9933;fillColor=#613200;" parent="1" vertex="1">
          <mxGeometry x="-106.5" y="-1067.5" width="26" height="12" as="geometry" />
        </mxCell>
        <mxCell id="k22lOryHHmgSbOlUSeE7-117" value="" style="rounded=0;whiteSpace=wrap;html=1;strokeColor=none;fillColor=#3B1D00;" parent="1" vertex="1">
          <mxGeometry x="-536.5" y="-1098.5" width="56" height="42" as="geometry" />
        </mxCell>
        <mxCell id="k22lOryHHmgSbOlUSeE7-118" value="" style="rounded=0;whiteSpace=wrap;html=1;strokeColor=#BF7326;fillColor=#613200;" parent="1" vertex="1">
          <mxGeometry x="-536.5" y="-1099.5" width="26" height="12" as="geometry" />
        </mxCell>
        <mxCell id="k22lOryHHmgSbOlUSeE7-119" value="" style="rounded=0;whiteSpace=wrap;html=1;strokeColor=#FF9933;fillColor=#613200;" parent="1" vertex="1">
          <mxGeometry x="-505.5" y="-1099.5" width="26" height="12" as="geometry" />
        </mxCell>
        <mxCell id="k22lOryHHmgSbOlUSeE7-120" value="" style="rounded=0;whiteSpace=wrap;html=1;strokeColor=#FF9933;fillColor=#613200;" parent="1" vertex="1">
          <mxGeometry x="-536.5" y="-1083.05" width="6" height="12" as="geometry" />
        </mxCell>
        <mxCell id="k22lOryHHmgSbOlUSeE7-121" value="" style="rounded=0;whiteSpace=wrap;html=1;strokeColor=#FF9933;fillColor=#613200;" parent="1" vertex="1">
          <mxGeometry x="-526.5" y="-1083.05" width="27" height="12" as="geometry" />
        </mxCell>
        <mxCell id="k22lOryHHmgSbOlUSeE7-122" value="" style="rounded=0;whiteSpace=wrap;html=1;strokeColor=#FF9933;fillColor=#613200;" parent="1" vertex="1">
          <mxGeometry x="-495.5" y="-1083.05" width="16" height="12" as="geometry" />
        </mxCell>
        <mxCell id="k22lOryHHmgSbOlUSeE7-123" value="" style="rounded=0;whiteSpace=wrap;html=1;strokeColor=#FF9933;fillColor=#613200;" parent="1" vertex="1">
          <mxGeometry x="-536.5" y="-1067.5" width="26" height="12" as="geometry" />
        </mxCell>
        <mxCell id="k22lOryHHmgSbOlUSeE7-124" value="" style="rounded=0;whiteSpace=wrap;html=1;strokeColor=#FF9933;fillColor=#613200;" parent="1" vertex="1">
          <mxGeometry x="-505.5" y="-1067.5" width="26" height="12" as="geometry" />
        </mxCell>
        <mxCell id="k22lOryHHmgSbOlUSeE7-125" value="" style="rounded=0;whiteSpace=wrap;html=1;strokeColor=none;fillColor=#3B1D00;" parent="1" vertex="1">
          <mxGeometry x="-193.5" y="-1386.5" width="56" height="42" as="geometry" />
        </mxCell>
        <mxCell id="k22lOryHHmgSbOlUSeE7-126" value="" style="rounded=0;whiteSpace=wrap;html=1;strokeColor=#BF7326;fillColor=#613200;" parent="1" vertex="1">
          <mxGeometry x="-193.5" y="-1387.5" width="26" height="12" as="geometry" />
        </mxCell>
        <mxCell id="k22lOryHHmgSbOlUSeE7-127" value="" style="rounded=0;whiteSpace=wrap;html=1;strokeColor=#FF9933;fillColor=#613200;" parent="1" vertex="1">
          <mxGeometry x="-162.5" y="-1387.5" width="26" height="12" as="geometry" />
        </mxCell>
        <mxCell id="k22lOryHHmgSbOlUSeE7-128" value="" style="rounded=0;whiteSpace=wrap;html=1;strokeColor=#FF9933;fillColor=#613200;" parent="1" vertex="1">
          <mxGeometry x="-193.5" y="-1371.05" width="6" height="12" as="geometry" />
        </mxCell>
        <mxCell id="k22lOryHHmgSbOlUSeE7-129" value="" style="rounded=0;whiteSpace=wrap;html=1;strokeColor=#FF9933;fillColor=#613200;" parent="1" vertex="1">
          <mxGeometry x="-183.5" y="-1371.05" width="27" height="12" as="geometry" />
        </mxCell>
        <mxCell id="k22lOryHHmgSbOlUSeE7-130" value="" style="rounded=0;whiteSpace=wrap;html=1;strokeColor=#FF9933;fillColor=#613200;" parent="1" vertex="1">
          <mxGeometry x="-152.5" y="-1371.05" width="16" height="12" as="geometry" />
        </mxCell>
        <mxCell id="k22lOryHHmgSbOlUSeE7-131" value="" style="rounded=0;whiteSpace=wrap;html=1;strokeColor=#FF9933;fillColor=#613200;" parent="1" vertex="1">
          <mxGeometry x="-193.5" y="-1355.5" width="26" height="12" as="geometry" />
        </mxCell>
        <mxCell id="k22lOryHHmgSbOlUSeE7-132" value="" style="rounded=0;whiteSpace=wrap;html=1;strokeColor=#FF9933;fillColor=#613200;" parent="1" vertex="1">
          <mxGeometry x="-162.5" y="-1355.5" width="26" height="12" as="geometry" />
        </mxCell>
        <mxCell id="k22lOryHHmgSbOlUSeE7-133" value="" style="rounded=0;whiteSpace=wrap;html=1;strokeColor=none;fillColor=#3B1D00;" parent="1" vertex="1">
          <mxGeometry x="-136.5" y="-1386.5" width="56" height="42" as="geometry" />
        </mxCell>
        <mxCell id="k22lOryHHmgSbOlUSeE7-134" value="" style="rounded=0;whiteSpace=wrap;html=1;strokeColor=#BF7326;fillColor=#613200;" parent="1" vertex="1">
          <mxGeometry x="-136.5" y="-1387.5" width="26" height="12" as="geometry" />
        </mxCell>
        <mxCell id="k22lOryHHmgSbOlUSeE7-135" value="" style="rounded=0;whiteSpace=wrap;html=1;strokeColor=#FF9933;fillColor=#613200;" parent="1" vertex="1">
          <mxGeometry x="-105.5" y="-1387.5" width="26" height="12" as="geometry" />
        </mxCell>
        <mxCell id="k22lOryHHmgSbOlUSeE7-136" value="" style="rounded=0;whiteSpace=wrap;html=1;strokeColor=#FF9933;fillColor=#613200;" parent="1" vertex="1">
          <mxGeometry x="-136.5" y="-1371.05" width="6" height="12" as="geometry" />
        </mxCell>
        <mxCell id="k22lOryHHmgSbOlUSeE7-137" value="" style="rounded=0;whiteSpace=wrap;html=1;strokeColor=#FF9933;fillColor=#613200;" parent="1" vertex="1">
          <mxGeometry x="-126.5" y="-1371.05" width="27" height="12" as="geometry" />
        </mxCell>
        <mxCell id="k22lOryHHmgSbOlUSeE7-138" value="" style="rounded=0;whiteSpace=wrap;html=1;strokeColor=#FF9933;fillColor=#613200;" parent="1" vertex="1">
          <mxGeometry x="-95.5" y="-1371.05" width="16" height="12" as="geometry" />
        </mxCell>
        <mxCell id="k22lOryHHmgSbOlUSeE7-139" value="" style="rounded=0;whiteSpace=wrap;html=1;strokeColor=#FF9933;fillColor=#613200;" parent="1" vertex="1">
          <mxGeometry x="-136.5" y="-1355.5" width="26" height="12" as="geometry" />
        </mxCell>
        <mxCell id="k22lOryHHmgSbOlUSeE7-140" value="" style="rounded=0;whiteSpace=wrap;html=1;strokeColor=#FF9933;fillColor=#613200;" parent="1" vertex="1">
          <mxGeometry x="-105.5" y="-1355.5" width="26" height="12" as="geometry" />
        </mxCell>
        <mxCell id="k22lOryHHmgSbOlUSeE7-141" value="" style="rounded=0;whiteSpace=wrap;html=1;strokeColor=none;fillColor=#3B1D00;" parent="1" vertex="1">
          <mxGeometry x="-79.5" y="-1386.5" width="56" height="42" as="geometry" />
        </mxCell>
        <mxCell id="k22lOryHHmgSbOlUSeE7-142" value="" style="rounded=0;whiteSpace=wrap;html=1;strokeColor=#BF7326;fillColor=#613200;" parent="1" vertex="1">
          <mxGeometry x="-79.5" y="-1387.5" width="26" height="12" as="geometry" />
        </mxCell>
        <mxCell id="k22lOryHHmgSbOlUSeE7-143" value="" style="rounded=0;whiteSpace=wrap;html=1;strokeColor=#FF9933;fillColor=#613200;" parent="1" vertex="1">
          <mxGeometry x="-48.5" y="-1387.5" width="26" height="12" as="geometry" />
        </mxCell>
        <mxCell id="k22lOryHHmgSbOlUSeE7-144" value="" style="rounded=0;whiteSpace=wrap;html=1;strokeColor=#FF9933;fillColor=#613200;" parent="1" vertex="1">
          <mxGeometry x="-79.5" y="-1371.05" width="6" height="12" as="geometry" />
        </mxCell>
        <mxCell id="k22lOryHHmgSbOlUSeE7-145" value="" style="rounded=0;whiteSpace=wrap;html=1;strokeColor=#FF9933;fillColor=#613200;" parent="1" vertex="1">
          <mxGeometry x="-69.5" y="-1371.05" width="27" height="12" as="geometry" />
        </mxCell>
        <mxCell id="k22lOryHHmgSbOlUSeE7-146" value="" style="rounded=0;whiteSpace=wrap;html=1;strokeColor=#FF9933;fillColor=#613200;" parent="1" vertex="1">
          <mxGeometry x="-38.5" y="-1371.05" width="16" height="12" as="geometry" />
        </mxCell>
        <mxCell id="k22lOryHHmgSbOlUSeE7-147" value="" style="rounded=0;whiteSpace=wrap;html=1;strokeColor=#FF9933;fillColor=#613200;" parent="1" vertex="1">
          <mxGeometry x="-79.5" y="-1355.5" width="26" height="12" as="geometry" />
        </mxCell>
        <mxCell id="k22lOryHHmgSbOlUSeE7-148" value="" style="rounded=0;whiteSpace=wrap;html=1;strokeColor=#FF9933;fillColor=#613200;" parent="1" vertex="1">
          <mxGeometry x="-48.5" y="-1355.5" width="26" height="12" as="geometry" />
        </mxCell>
        <mxCell id="k22lOryHHmgSbOlUSeE7-149" value="" style="rounded=0;whiteSpace=wrap;html=1;strokeColor=none;fillColor=#3B1D00;" parent="1" vertex="1">
          <mxGeometry x="34" y="-1386.5" width="56" height="42" as="geometry" />
        </mxCell>
        <mxCell id="k22lOryHHmgSbOlUSeE7-150" value="" style="rounded=0;whiteSpace=wrap;html=1;strokeColor=#BF7326;fillColor=#613200;" parent="1" vertex="1">
          <mxGeometry x="34" y="-1387.5" width="26" height="12" as="geometry" />
        </mxCell>
        <mxCell id="k22lOryHHmgSbOlUSeE7-151" value="" style="rounded=0;whiteSpace=wrap;html=1;strokeColor=#FF9933;fillColor=#613200;" parent="1" vertex="1">
          <mxGeometry x="65" y="-1387.5" width="26" height="12" as="geometry" />
        </mxCell>
        <mxCell id="k22lOryHHmgSbOlUSeE7-152" value="" style="rounded=0;whiteSpace=wrap;html=1;strokeColor=#FF9933;fillColor=#613200;" parent="1" vertex="1">
          <mxGeometry x="34" y="-1371.05" width="6" height="12" as="geometry" />
        </mxCell>
        <mxCell id="k22lOryHHmgSbOlUSeE7-153" value="" style="rounded=0;whiteSpace=wrap;html=1;strokeColor=#FF9933;fillColor=#613200;" parent="1" vertex="1">
          <mxGeometry x="44" y="-1371.05" width="27" height="12" as="geometry" />
        </mxCell>
        <mxCell id="k22lOryHHmgSbOlUSeE7-154" value="" style="rounded=0;whiteSpace=wrap;html=1;strokeColor=#FF9933;fillColor=#613200;" parent="1" vertex="1">
          <mxGeometry x="75" y="-1371.05" width="16" height="12" as="geometry" />
        </mxCell>
        <mxCell id="k22lOryHHmgSbOlUSeE7-155" value="" style="rounded=0;whiteSpace=wrap;html=1;strokeColor=#FF9933;fillColor=#613200;" parent="1" vertex="1">
          <mxGeometry x="34" y="-1355.5" width="26" height="12" as="geometry" />
        </mxCell>
        <mxCell id="k22lOryHHmgSbOlUSeE7-156" value="" style="rounded=0;whiteSpace=wrap;html=1;strokeColor=#FF9933;fillColor=#613200;" parent="1" vertex="1">
          <mxGeometry x="65" y="-1355.5" width="26" height="12" as="geometry" />
        </mxCell>
        <mxCell id="k22lOryHHmgSbOlUSeE7-157" value="" style="rounded=0;whiteSpace=wrap;html=1;strokeColor=none;fillColor=#3B1D00;" parent="1" vertex="1">
          <mxGeometry x="91" y="-1386.5" width="56" height="42" as="geometry" />
        </mxCell>
        <mxCell id="k22lOryHHmgSbOlUSeE7-158" value="" style="rounded=0;whiteSpace=wrap;html=1;strokeColor=#BF7326;fillColor=#613200;" parent="1" vertex="1">
          <mxGeometry x="91" y="-1387.5" width="26" height="12" as="geometry" />
        </mxCell>
        <mxCell id="k22lOryHHmgSbOlUSeE7-159" value="" style="rounded=0;whiteSpace=wrap;html=1;strokeColor=#FF9933;fillColor=#613200;" parent="1" vertex="1">
          <mxGeometry x="122" y="-1387.5" width="26" height="12" as="geometry" />
        </mxCell>
        <mxCell id="k22lOryHHmgSbOlUSeE7-160" value="" style="rounded=0;whiteSpace=wrap;html=1;strokeColor=#FF9933;fillColor=#613200;" parent="1" vertex="1">
          <mxGeometry x="91" y="-1371.05" width="6" height="12" as="geometry" />
        </mxCell>
        <mxCell id="k22lOryHHmgSbOlUSeE7-161" value="" style="rounded=0;whiteSpace=wrap;html=1;strokeColor=#FF9933;fillColor=#613200;" parent="1" vertex="1">
          <mxGeometry x="101" y="-1371.05" width="27" height="12" as="geometry" />
        </mxCell>
        <mxCell id="k22lOryHHmgSbOlUSeE7-162" value="" style="rounded=0;whiteSpace=wrap;html=1;strokeColor=#FF9933;fillColor=#613200;" parent="1" vertex="1">
          <mxGeometry x="132" y="-1371.05" width="16" height="12" as="geometry" />
        </mxCell>
        <mxCell id="k22lOryHHmgSbOlUSeE7-163" value="" style="rounded=0;whiteSpace=wrap;html=1;strokeColor=#FF9933;fillColor=#613200;" parent="1" vertex="1">
          <mxGeometry x="91" y="-1355.5" width="26" height="12" as="geometry" />
        </mxCell>
        <mxCell id="k22lOryHHmgSbOlUSeE7-164" value="" style="rounded=0;whiteSpace=wrap;html=1;strokeColor=#FF9933;fillColor=#613200;" parent="1" vertex="1">
          <mxGeometry x="122" y="-1355.5" width="26" height="12" as="geometry" />
        </mxCell>
        <mxCell id="k22lOryHHmgSbOlUSeE7-165" value="" style="rounded=0;whiteSpace=wrap;html=1;strokeColor=none;fillColor=#3B1D00;" parent="1" vertex="1">
          <mxGeometry x="148" y="-1386.5" width="56" height="42" as="geometry" />
        </mxCell>
        <mxCell id="k22lOryHHmgSbOlUSeE7-166" value="" style="rounded=0;whiteSpace=wrap;html=1;strokeColor=#BF7326;fillColor=#613200;" parent="1" vertex="1">
          <mxGeometry x="148" y="-1387.5" width="26" height="12" as="geometry" />
        </mxCell>
        <mxCell id="k22lOryHHmgSbOlUSeE7-167" value="" style="rounded=0;whiteSpace=wrap;html=1;strokeColor=#FF9933;fillColor=#613200;" parent="1" vertex="1">
          <mxGeometry x="179" y="-1387.5" width="26" height="12" as="geometry" />
        </mxCell>
        <mxCell id="k22lOryHHmgSbOlUSeE7-168" value="" style="rounded=0;whiteSpace=wrap;html=1;strokeColor=#FF9933;fillColor=#613200;" parent="1" vertex="1">
          <mxGeometry x="148" y="-1371.05" width="6" height="12" as="geometry" />
        </mxCell>
        <mxCell id="k22lOryHHmgSbOlUSeE7-169" value="" style="rounded=0;whiteSpace=wrap;html=1;strokeColor=#FF9933;fillColor=#613200;" parent="1" vertex="1">
          <mxGeometry x="158" y="-1371.05" width="27" height="12" as="geometry" />
        </mxCell>
        <mxCell id="k22lOryHHmgSbOlUSeE7-170" value="" style="rounded=0;whiteSpace=wrap;html=1;strokeColor=#FF9933;fillColor=#613200;" parent="1" vertex="1">
          <mxGeometry x="189" y="-1371.05" width="16" height="12" as="geometry" />
        </mxCell>
        <mxCell id="k22lOryHHmgSbOlUSeE7-171" value="" style="rounded=0;whiteSpace=wrap;html=1;strokeColor=#FF9933;fillColor=#613200;" parent="1" vertex="1">
          <mxGeometry x="148" y="-1355.5" width="26" height="12" as="geometry" />
        </mxCell>
        <mxCell id="k22lOryHHmgSbOlUSeE7-172" value="" style="rounded=0;whiteSpace=wrap;html=1;strokeColor=#FF9933;fillColor=#613200;" parent="1" vertex="1">
          <mxGeometry x="179" y="-1355.5" width="26" height="12" as="geometry" />
        </mxCell>
        <mxCell id="k22lOryHHmgSbOlUSeE7-174" value="" style="rounded=0;whiteSpace=wrap;html=1;strokeColor=none;fillColor=#FFFFFF;" parent="1" vertex="1">
          <mxGeometry x="3.5" y="-1368.21" width="8" height="20.94" as="geometry" />
        </mxCell>
        <mxCell id="k22lOryHHmgSbOlUSeE7-176" value="" style="rounded=0;whiteSpace=wrap;html=1;strokeColor=none;fillColor=#FFFFFF;rotation=-90;" parent="1" vertex="1">
          <mxGeometry x="-0.5" y="-1388.5" width="8" height="17" as="geometry" />
        </mxCell>
        <mxCell id="k22lOryHHmgSbOlUSeE7-177" value="" style="rounded=0;whiteSpace=wrap;html=1;strokeColor=none;fillColor=#FFFFFF;" parent="1" vertex="1">
          <mxGeometry x="11.5" y="-1380.73" width="8" height="17" as="geometry" />
        </mxCell>
        <mxCell id="k22lOryHHmgSbOlUSeE7-178" value="" style="rounded=0;whiteSpace=wrap;html=1;strokeColor=none;fillColor=#FFFFFF;" parent="1" vertex="1">
          <mxGeometry x="-10.5" y="-1380.1599999999999" width="8" height="11.89" as="geometry" />
        </mxCell>
        <mxCell id="k22lOryHHmgSbOlUSeE7-179" value="" style="rounded=0;whiteSpace=wrap;html=1;strokeColor=none;fillColor=#E8E800;rotation=-90;" parent="1" vertex="1">
          <mxGeometry x="6.5" y="-1368.81" width="2" height="29.39" as="geometry" />
        </mxCell>
        <mxCell id="k22lOryHHmgSbOlUSeE7-180" value="" style="rounded=0;whiteSpace=wrap;html=1;strokeColor=none;fillColor=#E8E800;rotation=-90;" parent="1" vertex="1">
          <mxGeometry x="9.5" y="-1368.21" width="2" height="29.39" as="geometry" />
        </mxCell>
        <mxCell id="k22lOryHHmgSbOlUSeE7-181" value="" style="rounded=0;whiteSpace=wrap;html=1;strokeColor=none;fillColor=#E8E800;rotation=45;" parent="1" vertex="1">
          <mxGeometry x="-0.5" y="-1374.21" width="5.95" height="11.98" as="geometry" />
        </mxCell>
        <mxCell id="k22lOryHHmgSbOlUSeE7-183" value="" style="rounded=0;whiteSpace=wrap;html=1;strokeColor=#666600;fillColor=#666600;" parent="1" vertex="1">
          <mxGeometry x="-19.5" y="-1384.54" width="2" height="1" as="geometry" />
        </mxCell>
        <mxCell id="k22lOryHHmgSbOlUSeE7-185" value="" style="rounded=0;whiteSpace=wrap;html=1;strokeColor=#666600;fillColor=#666600;" parent="1" vertex="1">
          <mxGeometry x="29.5" y="-1384.68" width="2" height="1" as="geometry" />
        </mxCell>
        <mxCell id="k22lOryHHmgSbOlUSeE7-190" value="" style="ellipse;whiteSpace=wrap;html=1;strokeColor=none;fillColor=#FFE014;" parent="1" vertex="1">
          <mxGeometry x="-20.75" y="-1468.5" width="52.5" height="30" as="geometry" />
        </mxCell>
        <mxCell id="k22lOryHHmgSbOlUSeE7-189" value="" style="ellipse;whiteSpace=wrap;html=1;strokeColor=none;fillColor=#FFFFFF;" parent="1" vertex="1">
          <mxGeometry x="-15.75" y="-1463.5" width="42.5" height="20" as="geometry" />
        </mxCell>
        <mxCell id="k22lOryHHmgSbOlUSeE7-192" value="" style="rounded=1;whiteSpace=wrap;html=1;strokeColor=#4D4D4D;fillColor=#000000;rotation=-90;" parent="1" vertex="1">
          <mxGeometry x="-5.440000000000055" y="-1455.06" width="10.12" height="5" as="geometry" />
        </mxCell>
        <mxCell id="k22lOryHHmgSbOlUSeE7-193" value="" style="rounded=1;whiteSpace=wrap;html=1;strokeColor=#4D4D4D;fillColor=#000000;rotation=-90;" parent="1" vertex="1">
          <mxGeometry x="5.559999999999945" y="-1455.06" width="10.12" height="5" as="geometry" />
        </mxCell>
        <mxCell id="k22lOryHHmgSbOlUSeE7-194" value="" style="whiteSpace=wrap;html=1;shape=mxgraph.basic.pointed_oval;strokeColor=#74A15C;fillColor=#97D077;rotation=-75;" parent="1" vertex="1">
          <mxGeometry x="-18.25999999999999" y="-1423.5" width="18" height="30" as="geometry" />
        </mxCell>
        <mxCell id="k22lOryHHmgSbOlUSeE7-197" value="" style="endArrow=none;html=1;exitX=0.47;exitY=0.985;exitDx=0;exitDy=0;exitPerimeter=0;entryX=0.56;entryY=0.249;entryDx=0;entryDy=0;entryPerimeter=0;strokeColor=#74A15C;" parent="1" source="k22lOryHHmgSbOlUSeE7-194" target="k22lOryHHmgSbOlUSeE7-194" edge="1">
          <mxGeometry width="50" height="50" relative="1" as="geometry">
            <mxPoint x="-78.25999999999999" y="-1353.5" as="sourcePoint" />
            <mxPoint x="-28.25999999999999" y="-1404.5" as="targetPoint" />
            <Array as="points">
              <mxPoint x="-9.259999999999991" y="-1410.5" />
            </Array>
          </mxGeometry>
        </mxCell>
        <mxCell id="k22lOryHHmgSbOlUSeE7-198" value="" style="endArrow=none;html=1;exitX=0.587;exitY=0.756;exitDx=0;exitDy=0;exitPerimeter=0;entryX=0.406;entryY=0.037;entryDx=0;entryDy=0;entryPerimeter=0;strokeColor=#74A15C;" parent="1" source="k22lOryHHmgSbOlUSeE7-196" edge="1">
          <mxGeometry width="50" height="50" relative="1" as="geometry">
            <mxPoint x="32.494458488150485" y="-1403.7225829475622" as="sourcePoint" />
            <mxPoint x="10.69399999999996" y="-1411.5459999999998" as="targetPoint" />
            <Array as="points">
              <mxPoint x="21.49000000000001" y="-1413" />
            </Array>
          </mxGeometry>
        </mxCell>
        <mxCell id="k22lOryHHmgSbOlUSeE7-209" value="" style="endArrow=none;dashed=1;html=1;dashPattern=1 3;strokeWidth=2;" parent="1" edge="1">
          <mxGeometry width="50" height="50" relative="1" as="geometry">
            <mxPoint x="-182" y="-1438.5" as="sourcePoint" />
            <mxPoint x="-245" y="-1468.5" as="targetPoint" />
            <Array as="points">
              <mxPoint x="-182" y="-1473.5" />
              <mxPoint x="-195" y="-1488.5" />
              <mxPoint x="-215" y="-1488.5" />
            </Array>
          </mxGeometry>
        </mxCell>
        <mxCell id="k22lOryHHmgSbOlUSeE7-210" value="" style="endArrow=none;dashed=1;html=1;dashPattern=1 3;strokeWidth=2;" parent="1" edge="1">
          <mxGeometry width="50" height="50" relative="1" as="geometry">
            <mxPoint x="-158.5" y="-1468.5" as="sourcePoint" />
            <mxPoint x="-240" y="-1500" as="targetPoint" />
            <Array as="points">
              <mxPoint x="-165.5" y="-1505" />
              <mxPoint x="-190" y="-1520" />
              <mxPoint x="-214.5" y="-1517" />
            </Array>
          </mxGeometry>
        </mxCell>
        <mxCell id="k22lOryHHmgSbOlUSeE7-225" value="" style="rounded=0;whiteSpace=wrap;html=1;strokeColor=#666600;fillColor=#666600;" parent="1" vertex="1">
          <mxGeometry x="-19.5" y="-1347.27" width="2" height="1" as="geometry" />
        </mxCell>
        <mxCell id="k22lOryHHmgSbOlUSeE7-226" value="" style="rounded=0;whiteSpace=wrap;html=1;strokeColor=#666600;fillColor=#666600;" parent="1" vertex="1">
          <mxGeometry x="29.5" y="-1347.27" width="2" height="1" as="geometry" />
        </mxCell>
        <mxCell id="k22lOryHHmgSbOlUSeE7-231" value="" style="shape=xor;whiteSpace=wrap;html=1;strokeColor=none;fillColor=#CF9D78;rotation=90;" parent="1" vertex="1">
          <mxGeometry x="-173.33693041129254" y="-1152.1158872777112" width="44.42982570290379" height="49.341690545742615" as="geometry" />
        </mxCell>
        <mxCell id="k22lOryHHmgSbOlUSeE7-203" value="" style="verticalLabelPosition=bottom;verticalAlign=top;html=1;shape=mxgraph.basic.drop;strokeColor=none;fillColor=#8F5746;rotation=15;" parent="1" vertex="1">
          <mxGeometry x="-190.0499498465349" y="-1203.5359096373502" width="47.39181408309737" height="77.13750955317762" as="geometry" />
        </mxCell>
        <mxCell id="k22lOryHHmgSbOlUSeE7-204" value="" style="verticalLabelPosition=bottom;verticalAlign=top;html=1;shape=mxgraph.basic.drop;strokeColor=none;fillColor=#8F5746;rotation=-15;" parent="1" vertex="1">
          <mxGeometry x="-158.34186423656263" y="-1201.786522427092" width="47.39181408309737" height="77.13750955317762" as="geometry" />
        </mxCell>
        <mxCell id="k22lOryHHmgSbOlUSeE7-205" value="" style="verticalLabelPosition=bottom;verticalAlign=top;html=1;shape=mxgraph.basic.drop;strokeColor=none;fillColor=#8F5746;rotation=-180;" parent="1" vertex="1">
          <mxGeometry x="-160.23753679988647" y="-1203.5359096373502" width="18.23103848009152" height="34.93541210912958" as="geometry" />
        </mxCell>
        <mxCell id="k22lOryHHmgSbOlUSeE7-206" value="" style="shape=dataStorage;whiteSpace=wrap;html=1;fixedSize=1;strokeColor=none;fillColor=#8F5746;rotation=91.1;size=0;" parent="1" vertex="1">
          <mxGeometry x="-172.99630174757033" y="-1175.9942750963628" width="46.78460646515769" height="51.248074044100846" as="geometry" />
        </mxCell>
        <mxCell id="k22lOryHHmgSbOlUSeE7-215" value="" style="verticalLabelPosition=bottom;verticalAlign=top;html=1;shape=mxgraph.basic.cone2;dx=0.64;dy=0.9;strokeColor=#E6E6E6;fillColor=#FFFFFF;rotation=-10;" parent="1" vertex="1">
          <mxGeometry x="-176.25448896578337" y="-1158.1938864313004" width="7.404970950483965" height="12.298042567840392" as="geometry" />
        </mxCell>
        <mxCell id="k22lOryHHmgSbOlUSeE7-216" value="" style="verticalLabelPosition=bottom;verticalAlign=top;html=1;shape=mxgraph.basic.cone2;dx=0.33;dy=0.9;strokeColor=#E6E6E6;fillColor=#FFFFFF;rotation=15;" parent="1" vertex="1">
          <mxGeometry x="-130.86942201026693" y="-1158.1340783215478" width="7.234656618622833" height="12.686795281231094" as="geometry" />
        </mxCell>
        <mxCell id="k22lOryHHmgSbOlUSeE7-211" value="" style="endArrow=none;html=1;strokeColor=#57352A;fillColor=#5E392E;exitX=0.41;exitY=0.785;exitDx=0;exitDy=0;exitPerimeter=0;entryX=0.642;entryY=0.771;entryDx=0;entryDy=0;entryPerimeter=0;strokeWidth=3;" parent="1" source="k22lOryHHmgSbOlUSeE7-203" target="k22lOryHHmgSbOlUSeE7-204" edge="1">
          <mxGeometry x="591.37" y="-265.91999999999996" width="50" height="50" as="geometry">
            <mxPoint x="-178.3352858028693" y="-1145.9706040006504" as="sourcePoint" />
            <mxPoint x="-119.09551819899752" y="-1145.9706040006504" as="targetPoint" />
            <Array as="points">
              <mxPoint x="-163.52534390190135" y="-1147.802227361818" />
              <mxPoint x="-149.45589909598186" y="-1147.802227361818" />
              <mxPoint x="-134.64595719501392" y="-1147.054625989913" />
            </Array>
          </mxGeometry>
        </mxCell>
        <mxCell id="k22lOryHHmgSbOlUSeE7-217" value="" style="shape=xor;whiteSpace=wrap;html=1;strokeColor=none;fillColor=#8F5746;rotation=-75;" parent="1" vertex="1">
          <mxGeometry x="-173.75901375547016" y="-1207.7449053611763" width="39.24634603756501" height="47.23345467696997" as="geometry" />
        </mxCell>
        <mxCell id="k22lOryHHmgSbOlUSeE7-219" value="" style="shape=xor;whiteSpace=wrap;html=1;strokeColor=none;fillColor=#8F5746;rotation=-105;" parent="1" vertex="1">
          <mxGeometry x="-166.76872117821324" y="-1205.7787137530659" width="43.133955786569096" height="46.92693811448885" as="geometry" />
        </mxCell>
        <mxCell id="k22lOryHHmgSbOlUSeE7-212" value="" style="ellipse;whiteSpace=wrap;html=1;strokeColor=#E6E6E6;fillColor=#FFFFFF;rotation=-88.9;" parent="1" vertex="1">
          <mxGeometry x="-170.18981775733687" y="-1184.0309898443438" width="20.037851392009607" height="15.243591973146847" as="geometry" />
        </mxCell>
        <mxCell id="k22lOryHHmgSbOlUSeE7-213" value="" style="ellipse;whiteSpace=wrap;html=1;strokeColor=#E6E6E6;fillColor=#FFFFFF;rotation=-88.9;" parent="1" vertex="1">
          <mxGeometry x="-150.1963961910302" y="-1183.6870932132674" width="20.037851392009607" height="15.243591973146847" as="geometry" />
        </mxCell>
        <mxCell id="k22lOryHHmgSbOlUSeE7-223" value="" style="endArrow=none;html=1;strokeColor=#333333;strokeWidth=4;fillColor=#1A1A1A;entryX=0.503;entryY=0.357;entryDx=0;entryDy=0;entryPerimeter=0;exitX=0.1;exitY=0.255;exitDx=0;exitDy=0;exitPerimeter=0;" parent="1" edge="1">
          <mxGeometry x="591.37" y="-265.91999999999996" width="50" height="50" as="geometry">
            <mxPoint x="-179.81997405895163" y="-1188.1753203745168" as="sourcePoint" />
            <mxPoint x="-151.65553468100472" y="-1180.7046177720392" as="targetPoint" />
            <Array as="points">
              <mxPoint x="-165.00633809199815" y="-1194.15351241994" />
            </Array>
          </mxGeometry>
        </mxCell>
        <mxCell id="k22lOryHHmgSbOlUSeE7-224" value="" style="endArrow=none;html=1;strokeColor=#333333;strokeWidth=4;fillColor=#1A1A1A;entryX=0.502;entryY=0.422;entryDx=0;entryDy=0;entryPerimeter=0;exitX=0.879;exitY=0.21;exitDx=0;exitDy=0;exitPerimeter=0;" parent="1" source="k22lOryHHmgSbOlUSeE7-204" target="k22lOryHHmgSbOlUSeE7-219" edge="1">
          <mxGeometry x="591.37" y="-265.91999999999996" width="50" height="50" as="geometry">
            <mxPoint x="-116.8740269138525" y="-1191.9107083042245" as="sourcePoint" />
            <mxPoint x="-82.78930484150396" y="-1194.2810586858375" as="targetPoint" />
            <Array as="points">
              <mxPoint x="-134.88291626542934" y="-1193.2339627324966" />
            </Array>
          </mxGeometry>
        </mxCell>
        <mxCell id="k22lOryHHmgSbOlUSeE7-227" value="" style="ellipse;whiteSpace=wrap;html=1;strokeColor=#1A1A1A;fillColor=#1A1A1A;rotation=-88.9;" parent="1" vertex="1">
          <mxGeometry x="-162.28130878221987" y="-1178.281935294393" width="5.657397806169749" height="5.0612612877981435" as="geometry" />
        </mxCell>
        <mxCell id="k22lOryHHmgSbOlUSeE7-228" value="" style="ellipse;whiteSpace=wrap;html=1;strokeColor=#1A1A1A;fillColor=#1A1A1A;rotation=-88.9;" parent="1" vertex="1">
          <mxGeometry x="-145.2498755961069" y="-1178.281935294393" width="5.657397806169749" height="5.0612612877981435" as="geometry" />
        </mxCell>
        <mxCell id="k22lOryHHmgSbOlUSeE7-232" value="" style="ellipse;whiteSpace=wrap;html=1;strokeColor=none;fillColor=#262119;rotation=15;" parent="1" vertex="1">
          <mxGeometry x="-177.97984719724604" y="-1120.7166296576931" width="28.886791677837948" height="22.428041157155732" as="geometry" />
        </mxCell>
        <mxCell id="vKG316yKn0pRFyBrITXm-3" value="" style="endArrow=none;html=1;" edge="1" parent="1">
          <mxGeometry width="50" height="50" relative="1" as="geometry">
            <mxPoint x="-550" y="400" as="sourcePoint" />
            <mxPoint x="-550" y="-610" as="targetPoint" />
          </mxGeometry>
        </mxCell>
        <mxCell id="vKG316yKn0pRFyBrITXm-4" value="" style="endArrow=none;html=1;entryX=-0.008;entryY=0.125;entryDx=0;entryDy=0;entryPerimeter=0;" edge="1" parent="1" target="7-Smgg52Uy-sA67y1xf7-46">
          <mxGeometry width="50" height="50" relative="1" as="geometry">
            <mxPoint x="-550" y="-607" as="sourcePoint" />
            <mxPoint x="-200" y="-545" as="targetPoint" />
          </mxGeometry>
        </mxCell>
        <mxCell id="vKG316yKn0pRFyBrITXm-5" value="" style="endArrow=none;html=1;entryX=0.5;entryY=0;entryDx=0;entryDy=0;" edge="1" parent="1">
          <mxGeometry width="50" height="50" relative="1" as="geometry">
            <mxPoint x="200" y="-606" as="sourcePoint" />
            <mxPoint x="200" y="-547.5" as="targetPoint" />
          </mxGeometry>
        </mxCell>
      </root>
    </mxGraphModel>
  </diagram>
</mxfile>
